<?xml version="1.0" standalone="no"?>
<!DOCTYPE svg PUBLIC "-//W3C//DTD SVG 20010904//EN"
 "http://www.w3.org/TR/2001/REC-SVG-20010904/DTD/svg10.dtd">
<svg version="1.0" xmlns="http://www.w3.org/2000/svg"
 width="1699.000000pt" height="1757.000000pt" viewBox="0 0 1699.000000 1757.000000"
 preserveAspectRatio="xMidYMid meet">

<g transform="translate(0.000000,1757.000000) scale(0.100000,-0.100000)"
fill="#000000" stroke="none">
<path d="M13150 17249 c-38 -153 -132 -416 -206 -577 -115 -246 -140 -299
-200 -412 -19 -36 -45 -83 -59 -105 -14 -22 -33 -56 -41 -75 -9 -19 -43 -77
-75 -128 -33 -52 -59 -96 -59 -98 0 -3 -8 -17 -19 -32 -10 -15 -76 -115 -146
-222 -209 -320 -229 -351 -294 -448 -34 -51 -59 -97 -56 -103 4 -5 1 -9 -5 -9
-6 0 -8 -5 -5 -10 4 -6 1 -9 -5 -8 -16 4 -42 -60 -28 -68 6 -4 8 -3 5 3 -3 5
13 0 36 -11 41 -20 41 -21 15 -24 -15 -2 -38 4 -52 13 -29 19 -40 7 -14 -17
10 -10 20 -18 23 -18 3 0 10 0 15 0 6 0 10 -7 10 -15 0 -9 14 -17 39 -21 46
-7 69 -20 57 -31 -5 -4 -11 -2 -13 5 -6 17 -23 15 -23 -3 0 -17 36 -20 60 -5
12 7 10 12 -9 30 -14 11 -21 23 -18 26 3 4 23 -10 44 -31 31 -30 34 -35 16
-30 -19 5 -23 2 -23 -15 0 -12 4 -19 9 -16 14 9 1 -32 -15 -45 -8 -6 -14 -15
-14 -19 0 -4 -23 -47 -51 -96 -148 -255 -343 -669 -439 -934 -59 -162 -137
-422 -140 -470 -4 -47 -1 -50 40 -50 22 0 40 -4 40 -10 0 -6 37 -10 90 -10 71
0 90 -3 90 -14 0 -9 18 -18 48 -24 61 -13 79 -12 79 4 0 7 -4 11 -9 8 -4 -3
-8 5 -8 18 0 16 3 19 9 10 11 -17 36 11 28 32 -3 8 -1 16 4 18 6 2 14 19 19
38 8 36 54 170 69 205 13 28 60 151 81 210 10 28 39 97 65 155 26 58 57 130
70 160 44 106 139 306 165 350 5 8 15 29 23 45 27 56 139 260 183 333 24 40
44 77 44 83 0 5 10 26 23 47 21 34 61 107 152 277 18 33 45 83 60 110 46 84
178 337 202 390 13 28 28 57 33 65 17 28 70 141 70 151 0 22 28 7 35 -18 3
-16 12 -35 20 -43 34 -39 121 -366 161 -605 9 -55 20 -122 25 -150 38 -211 50
-757 23 -1045 -8 -91 -15 -172 -15 -180 -1 -15 -15 -102 -26 -150 -2 -14 -14
-74 -24 -135 -31 -174 -53 -262 -109 -440 -17 -55 -35 -116 -40 -135 -5 -19
-21 -66 -34 -103 -14 -37 -21 -65 -16 -62 6 4 10 11 10 17 0 6 10 27 23 46 12
20 41 79 64 132 23 52 46 94 52 93 6 -2 11 1 11 7 0 5 6 7 13 4 16 -6 51 52
41 68 -4 7 -3 8 4 4 8 -5 12 0 12 13 0 12 4 21 8 21 4 0 15 13 24 28 14 23 15
31 5 41 -9 10 -9 11 4 6 12 -4 24 12 53 72 20 43 41 85 46 93 5 8 26 53 46
100 19 47 42 99 49 115 47 105 79 189 124 335 69 222 68 219 76 270 4 25 13
68 20 95 26 98 35 152 45 295 6 80 14 165 18 190 12 80 -15 590 -38 715 -24
134 -53 276 -67 330 -106 426 -207 695 -439 1160 -68 138 -134 267 -147 289
l-24 39 -23 -94z m-1650 -4033 c0 -8 -4 -18 -10 -21 -5 -3 -10 3 -10 14 0 12
5 21 10 21 6 0 10 -6 10 -14z m170 -5 c0 -6 15 -12 33 -14 19 -2 10 -4 -25 -5
-46 -2 -58 1 -58 13 0 9 9 15 25 15 14 0 25 -4 25 -9z m1666 -108 c-3 -20 -22
-28 -31 -14 -8 14 3 31 20 31 7 0 12 -8 11 -17z"/>
<path d="M14674 15908 c3 -13 13 -63 21 -113 9 -49 22 -119 30 -155 19 -88 51
-341 66 -515 5 -66 3 -335 -3 -405 -13 -140 -39 -333 -54 -402 -9 -40 -20 -93
-25 -118 -12 -66 -81 -299 -127 -425 -62 -172 -106 -274 -214 -495 -110 -224
-176 -343 -307 -553 -135 -215 -152 -241 -298 -444 -52 -71 -232 -334 -265
-386 -122 -191 -263 -461 -359 -687 -12 -30 -27 -59 -31 -64 -10 -13 -65 39
-88 84 -10 19 -37 53 -59 75 -23 21 -41 44 -41 50 0 6 -18 29 -41 50 -22 22
-49 56 -59 75 -10 19 -48 64 -84 100 -36 35 -66 69 -66 75 0 11 -511 517 -642
636 -40 37 -86 74 -103 82 -16 8 -48 34 -70 56 -21 23 -44 41 -50 41 -7 0 -20
9 -30 20 -25 28 -31 25 -39 -17 -30 -160 -35 -343 -24 -784 8 -306 26 -458 58
-499 11 -14 32 -43 47 -65 15 -22 68 -84 117 -137 114 -122 168 -185 192 -223
10 -16 36 -51 59 -77 54 -63 102 -126 128 -167 12 -19 29 -44 37 -56 14 -21
22 -32 66 -99 10 -16 26 -39 34 -50 8 -12 24 -37 35 -55 11 -18 29 -45 40 -60
12 -14 36 -56 53 -93 18 -37 37 -70 43 -74 17 -10 198 -382 209 -429 6 -25 14
-89 20 -143 5 -53 16 -136 24 -184 19 -119 79 -368 88 -368 5 0 8 79 8 175 0
107 4 175 10 175 12 0 40 -53 40 -78 0 -10 4 -22 8 -28 4 -5 16 -36 26 -69 10
-33 22 -69 26 -80 26 -72 33 -93 37 -118 3 -15 9 -30 14 -33 5 -3 9 -17 9 -32
0 -15 12 -58 25 -97 14 -38 25 -80 25 -93 0 -13 5 -33 11 -44 6 -11 15 -44 20
-72 17 -104 25 -142 34 -156 8 -13 16 -66 33 -220 4 -36 11 -72 17 -80 11 -18
24 -134 33 -305 4 -71 13 -143 20 -158 17 -39 17 -677 0 -727 -6 -19 -15 -96
-19 -170 -11 -186 -23 -302 -34 -320 -6 -8 -13 -44 -17 -80 -18 -159 -25 -206
-36 -227 -7 -12 -12 -35 -12 -52 0 -16 -4 -33 -10 -36 -5 -3 -10 -24 -10 -46
0 -22 -7 -56 -15 -76 -8 -19 -15 -44 -15 -55 0 -11 -11 -55 -24 -97 -123 -382
-162 -501 -178 -529 -10 -18 -18 -39 -18 -47 0 -7 -18 -51 -40 -96 -22 -46
-40 -88 -40 -94 0 -15 -240 -493 -266 -530 -12 -17 -37 -62 -57 -101 -19 -38
-42 -76 -51 -83 -9 -8 -16 -17 -16 -21 0 -4 -19 -36 -42 -70 -24 -34 -48 -69
-53 -78 -6 -9 -28 -43 -50 -76 -22 -32 -44 -66 -50 -75 -5 -9 -25 -33 -42 -54
-18 -20 -33 -42 -33 -47 0 -6 -25 -38 -55 -73 -119 -136 -133 -153 -148 -182
-9 -16 -56 -70 -106 -120 -50 -49 -91 -94 -91 -100 0 -10 -124 -133 -370 -365
-56 -52 -114 -102 -129 -110 -28 -15 -65 -44 -175 -142 -29 -27 -57 -48 -63
-48 -6 0 -30 -17 -54 -38 -24 -20 -53 -43 -64 -50 -96 -60 -142 -91 -170 -112
-38 -29 -129 -88 -219 -142 -73 -44 -660 -342 -714 -362 -90 -35 -171 -66
-222 -86 -30 -13 -68 -26 -85 -30 -30 -8 -107 -34 -225 -76 -36 -13 -74 -24
-85 -24 -10 0 -32 -4 -49 -9 -17 -5 -58 -17 -91 -26 -33 -9 -68 -21 -77 -26
-10 -5 -33 -9 -52 -9 -19 0 -47 -5 -63 -11 -36 -15 -100 -28 -183 -38 -36 -4
-75 -13 -87 -19 -12 -7 -46 -12 -77 -12 -30 0 -58 -5 -61 -10 -3 -6 -39 -10
-78 -10 -43 -1 -82 -6 -97 -15 -18 -10 -60 -14 -146 -15 -68 0 -124 -4 -130
-10 -7 -7 -142 -9 -400 -6 -420 5 -640 15 -664 31 -8 6 -49 13 -90 17 -157 15
-215 24 -229 32 -8 5 -44 13 -80 17 -84 10 -148 23 -184 38 -16 6 -44 11 -63
11 -19 0 -42 4 -52 9 -9 5 -44 17 -77 26 -33 9 -74 21 -91 26 -17 5 -39 9 -49
9 -11 0 -49 11 -85 24 -121 43 -195 68 -225 76 -16 4 -59 19 -95 34 -36 15
-81 32 -100 38 -19 6 -65 26 -102 44 -37 19 -73 34 -79 34 -15 0 -568 277
-589 295 -8 7 -35 23 -60 35 -25 12 -53 29 -62 37 -9 8 -46 34 -81 57 -130 83
-193 125 -219 145 -14 12 -30 21 -35 21 -5 0 -20 12 -34 26 -13 14 -39 35 -59
46 -19 12 -56 40 -82 62 -27 23 -69 59 -94 81 -25 22 -61 49 -79 60 -53 31
-495 452 -495 470 0 6 -41 51 -91 100 -50 50 -97 104 -106 120 -15 29 -29 46
-148 182 -30 35 -55 67 -55 73 0 5 -15 27 -32 47 -18 21 -37 45 -43 55 -5 9
-28 42 -51 75 -22 32 -43 65 -47 73 -4 8 -23 35 -42 60 -19 25 -42 59 -50 77
-8 17 -19 35 -25 38 -6 4 -27 39 -46 78 -20 40 -46 86 -58 102 -25 34 -260
507 -271 545 -4 14 -23 55 -41 92 -19 37 -34 74 -34 83 0 8 -4 23 -9 33 -33
65 -149 402 -161 467 -5 22 -17 65 -29 95 -12 30 -21 65 -21 78 0 13 -5 33
-11 44 -7 12 -15 47 -20 77 -12 84 -25 143 -38 174 -6 16 -11 50 -11 77 0 27
-5 52 -10 55 -6 3 -10 31 -10 61 0 31 -5 65 -11 76 -15 29 -30 163 -35 328 -3
80 -10 140 -17 148 -8 10 -12 122 -15 372 -4 315 -2 362 12 391 12 24 16 61
16 150 0 68 4 120 10 124 6 3 10 32 10 63 0 31 5 73 11 92 11 33 16 63 37 236
5 39 13 77 17 84 9 14 17 52 34 156 5 28 14 61 20 72 6 11 11 31 11 44 0 13
11 55 25 93 13 39 25 81 25 96 0 14 4 29 8 35 4 5 16 36 26 69 10 33 22 69 26
80 26 72 33 93 37 118 3 15 9 30 14 33 5 3 9 14 9 25 0 11 11 42 25 69 14 27
25 54 25 60 0 5 18 47 40 92 22 46 40 89 40 96 0 16 257 529 269 536 5 3 26
39 47 78 20 40 45 84 54 98 9 14 26 38 36 54 10 16 26 39 34 51 8 12 23 34 33
49 9 14 25 38 35 52 9 15 24 37 32 49 8 12 25 37 37 56 28 45 78 109 134 172
25 29 48 58 50 64 7 21 98 128 201 238 54 57 98 108 98 115 0 15 255 270 271
270 6 0 58 44 115 98 128 120 190 174 229 197 17 10 46 33 65 51 36 34 64 55
159 121 61 43 86 60 127 87 68 45 78 52 98 66 12 8 37 24 55 35 18 11 45 29
60 40 14 11 40 27 56 35 17 8 44 24 60 36 41 29 612 315 650 325 42 11 208 79
219 90 6 5 20 9 32 9 13 0 25 4 28 9 3 5 18 11 33 14 16 2 44 10 63 17 19 7
44 16 55 20 11 4 36 13 55 19 19 7 49 17 65 21 17 5 55 16 85 25 65 19 120 33
175 44 22 4 50 13 62 19 12 7 37 12 57 12 19 0 38 5 41 10 3 6 24 10 46 10 21
0 47 4 57 9 21 11 121 29 217 40 39 4 83 13 98 19 16 7 57 12 92 12 35 0 67 5
70 10 4 6 56 10 124 10 83 0 129 5 154 15 54 22 720 22 774 0 25 -10 71 -15
154 -15 68 0 120 -4 124 -10 3 -5 35 -10 70 -10 35 0 76 -5 92 -12 15 -6 57
-15 93 -19 36 -5 97 -12 136 -17 39 -5 77 -13 84 -17 14 -9 57 -18 155 -34 49
-8 102 -25 137 -42 10 -5 29 -9 43 -9 14 0 42 -7 62 -15 19 -8 46 -15 59 -15
14 0 32 -4 42 -9 9 -5 42 -16 72 -26 30 -9 64 -20 75 -25 11 -4 47 -16 80 -26
33 -10 64 -22 70 -26 5 -4 17 -8 27 -8 10 0 41 -11 68 -25 27 -14 54 -25 60
-25 5 0 33 -11 62 -25 28 -14 64 -25 80 -25 l28 0 1 163 c1 240 8 392 19 395
6 2 10 8 10 13 0 6 -4 7 -10 4 -6 -3 -7 1 -4 9 3 9 11 13 18 9 6 -4 5 1 -3 10
-11 15 -11 17 2 17 8 0 18 -6 20 -12 3 -7 6 91 6 217 0 127 -3 225 -7 218 -9
-14 -42 -7 -142 27 -36 13 -94 33 -130 45 -36 12 -94 32 -130 45 -36 12 -83
26 -105 31 -113 23 -181 42 -217 60 -10 5 -33 9 -52 9 -19 0 -47 5 -63 11 -36
15 -100 28 -184 38 -36 4 -72 12 -80 17 -15 9 -78 20 -204 34 -44 5 -102 14
-130 19 -65 13 -1682 13 -1750 0 -27 -5 -84 -12 -125 -15 -41 -4 -83 -10 -92
-15 -9 -5 -37 -9 -62 -9 -24 0 -57 -5 -73 -12 -15 -6 -50 -15 -78 -19 -96 -15
-140 -25 -162 -37 -12 -7 -40 -12 -62 -12 -23 0 -49 -4 -59 -9 -9 -5 -44 -17
-77 -26 -33 -9 -74 -21 -91 -26 -17 -5 -39 -9 -49 -9 -11 0 -49 -11 -85 -24
-115 -41 -194 -68 -225 -76 -37 -10 -138 -44 -225 -78 -36 -13 -90 -33 -119
-43 -30 -11 -65 -26 -78 -34 -12 -8 -28 -15 -36 -15 -8 0 -60 -22 -116 -50
-56 -27 -107 -50 -114 -50 -17 0 -317 -149 -352 -175 -17 -12 -68 -42 -115
-65 -47 -23 -96 -50 -110 -60 -14 -10 -41 -26 -60 -36 -19 -11 -107 -68 -195
-127 -204 -137 -191 -128 -256 -170 -30 -20 -62 -43 -69 -52 -8 -9 -30 -25
-49 -35 -20 -10 -54 -37 -76 -59 -21 -23 -44 -41 -50 -41 -6 0 -29 -18 -50
-41 -22 -22 -53 -48 -70 -56 -16 -8 -63 -45 -103 -82 -131 -119 -642 -625
-642 -636 0 -6 -30 -40 -66 -75 -36 -36 -74 -81 -84 -100 -10 -19 -37 -53 -59
-75 -23 -21 -41 -44 -41 -50 0 -6 -18 -29 -41 -50 -22 -22 -49 -56 -59 -76
-10 -19 -26 -41 -35 -49 -9 -7 -32 -39 -52 -69 -20 -31 -42 -65 -49 -76 -8
-11 -30 -45 -50 -75 -21 -30 -43 -64 -51 -75 -102 -153 -130 -195 -146 -225
-11 -19 -27 -46 -37 -60 -10 -14 -37 -63 -60 -110 -23 -47 -53 -98 -65 -115
-27 -36 -175 -333 -175 -351 0 -7 -22 -59 -49 -116 -26 -57 -57 -125 -68 -153
-11 -27 -30 -75 -42 -105 -13 -30 -32 -82 -43 -115 -11 -33 -31 -85 -44 -115
-13 -30 -27 -71 -33 -90 -16 -59 -43 -151 -68 -235 -39 -127 -43 -140 -43
-161 -1 -21 -33 -121 -44 -131 -3 -3 -6 -24 -6 -46 0 -22 -7 -62 -16 -91 -30
-95 -34 -112 -34 -145 0 -18 -5 -42 -12 -54 -11 -22 -21 -83 -37 -242 -4 -44
-13 -93 -20 -108 -6 -16 -11 -61 -11 -102 0 -41 -4 -77 -10 -80 -6 -4 -10 -59
-10 -131 0 -86 -5 -140 -16 -173 -13 -40 -15 -105 -12 -434 2 -292 6 -389 16
-399 8 -8 12 -51 12 -141 0 -70 4 -136 9 -145 5 -10 12 -57 15 -106 4 -49 11
-97 16 -107 6 -10 10 -49 10 -88 0 -38 5 -73 10 -76 6 -3 10 -28 10 -54 0 -27
7 -68 15 -91 8 -23 15 -56 15 -73 0 -17 4 -44 9 -61 28 -95 41 -145 45 -176
11 -81 34 -165 57 -212 5 -10 9 -27 9 -38 0 -12 18 -74 40 -139 22 -64 40
-127 40 -138 0 -12 9 -38 20 -60 11 -21 35 -85 55 -143 35 -107 87 -241 105
-272 5 -10 10 -23 10 -30 0 -37 359 -756 401 -805 9 -10 26 -36 37 -59 11 -22
40 -69 64 -105 23 -35 47 -71 53 -80 8 -14 80 -118 145 -213 8 -12 24 -37 35
-56 11 -18 35 -50 52 -70 18 -21 33 -42 33 -47 0 -5 14 -22 31 -39 18 -16 46
-51 64 -79 18 -27 49 -66 69 -84 20 -19 36 -40 36 -46 0 -6 27 -37 61 -70 33
-33 70 -76 81 -95 30 -50 524 -545 583 -585 28 -18 75 -58 105 -89 30 -31 59
-56 65 -56 6 0 29 -18 50 -41 22 -22 52 -47 67 -55 15 -8 50 -33 78 -57 108
-91 126 -104 231 -172 9 -5 43 -28 75 -50 33 -22 67 -44 76 -50 9 -5 44 -29
78 -53 34 -23 66 -42 70 -42 4 0 15 -9 24 -19 10 -11 39 -29 66 -40 27 -12 52
-26 55 -31 4 -6 55 -35 115 -65 60 -30 111 -59 115 -65 8 -13 319 -170 336
-170 7 0 55 -21 108 -47 53 -26 116 -55 141 -64 69 -25 141 -54 180 -71 19 -8
60 -23 90 -32 30 -10 64 -21 75 -25 11 -5 45 -16 75 -25 30 -10 64 -21 75 -25
83 -33 166 -59 290 -91 44 -11 94 -25 111 -30 39 -13 3314 -14 3346 -1 13 5
48 14 78 21 59 12 122 31 210 63 30 11 69 23 85 27 29 7 138 44 180 61 11 4
45 15 75 25 30 9 71 24 90 32 39 17 111 46 180 71 25 9 88 38 141 64 53 26
101 47 108 47 15 0 311 148 331 165 8 7 61 37 118 65 56 29 105 56 108 61 3 5
31 22 63 38 31 16 63 36 70 45 8 9 17 16 21 16 4 0 36 19 70 42 34 24 69 48
78 53 9 6 43 28 76 50 32 22 66 45 75 50 105 68 123 81 231 172 28 24 63 49
78 57 15 8 45 33 67 55 21 23 44 41 50 41 6 0 35 25 65 56 30 31 78 71 105 89
56 37 575 554 575 573 0 6 35 50 78 97 115 127 151 170 182 217 15 24 41 56
59 72 17 17 31 35 31 41 0 6 16 26 35 45 19 19 35 37 35 41 0 4 19 35 43 69
23 34 47 69 52 78 6 9 28 43 50 76 22 32 45 66 50 75 6 9 28 42 50 75 22 32
51 79 63 105 13 25 32 55 42 66 10 11 39 63 65 115 26 52 54 102 62 111 16 19
173 334 173 348 0 5 23 56 50 112 28 56 50 108 50 116 0 7 5 21 10 31 17 28
70 162 95 238 13 39 33 90 44 112 12 23 21 50 21 61 0 11 5 23 10 26 6 3 10
18 10 32 0 15 18 81 39 147 71 218 97 311 107 386 4 31 17 81 45 176 5 17 9
45 9 63 0 17 7 48 15 68 8 19 15 59 15 89 0 29 5 56 10 59 6 3 10 38 10 76 0
39 5 80 12 92 13 24 25 140 36 352 4 77 10 145 13 150 4 6 10 183 14 395 6
336 5 391 -9 430 -11 32 -16 83 -16 172 0 74 -4 129 -10 133 -5 3 -10 39 -10
78 0 40 -5 88 -11 107 -7 19 -16 69 -20 110 -17 161 -26 216 -37 237 -7 12
-12 36 -12 54 0 18 -4 46 -9 63 -5 17 -17 60 -26 96 -9 36 -21 79 -26 96 -13
42 -11 80 4 92 6 6 30 13 52 17 61 10 308 80 410 115 198 69 440 185 608 292
95 61 105 67 215 156 46 37 97 77 115 90 45 32 173 160 205 204 15 20 56 73
92 117 97 120 121 155 201 286 193 319 354 763 419 1155 53 326 53 325 54 775
1 419 -5 545 -25 545 -6 0 -30 -14 -55 -31 -80 -55 -122 -69 -209 -69 -101 0
-140 17 -228 100 -93 86 -169 214 -260 430 -68 164 -166 478 -211 675 -8 33
-21 87 -30 120 -18 64 -51 210 -66 285 -4 25 -19 81 -33 125 -13 44 -30 100
-36 125 -19 70 -77 248 -106 325 -15 39 -30 81 -35 95 -7 23 -59 151 -128 315
-108 258 -235 500 -387 743 -45 71 -73 94 -61 50z m314 -4048 c265 -83 446
-283 521 -579 30 -117 35 -156 35 -296 -1 -264 -46 -454 -182 -765 -162 -371
-376 -646 -742 -951 -69 -58 -143 -117 -165 -132 -96 -66 -111 -77 -135 -95
-44 -34 -160 -102 -173 -102 -14 0 -37 54 -37 85 0 17 -15 67 -40 130 -7 19
-28 91 -51 175 -6 19 -20 60 -33 90 -13 30 -33 82 -44 115 -11 33 -30 85 -43
115 -12 30 -31 78 -42 105 -11 28 -42 96 -68 153 -27 57 -49 110 -49 117 0 15
-186 384 -205 405 -7 8 -29 47 -49 87 -19 39 -39 74 -44 77 -4 2 -25 39 -46
80 -26 51 -36 83 -32 98 10 41 100 181 241 378 119 165 357 395 520 502 126
82 277 153 425 199 74 23 103 27 230 28 118 1 157 -3 208 -19z"/>
<path d="M10113 13433 c-15 -6 -17 -42 -3 -92 5 -20 23 -94 41 -166 95 -390
342 -1000 427 -1052 15 -9 58 -37 95 -62 38 -25 77 -51 87 -56 10 -6 24 -16
31 -22 8 -6 31 -20 52 -32 44 -25 44 -25 51 74 27 385 77 737 128 917 6 20 8
43 5 52 -3 8 -43 34 -89 57 -46 23 -96 52 -113 64 -35 26 -334 175 -352 175
-6 0 -58 22 -115 49 -111 52 -223 101 -229 100 -2 0 -10 -3 -16 -6z"/>
<path d="M7470 12309 c-140 -67 -213 -150 -281 -319 -12 -30 -14 -393 -14
-2415 0 -1309 3 -2398 8 -2420 4 -22 12 -58 16 -81 4 -22 17 -56 29 -75 12
-19 30 -50 41 -70 24 -43 81 -94 151 -134 28 -16 74 -44 100 -61 27 -17 78
-46 114 -64 36 -17 68 -36 72 -41 3 -5 32 -23 64 -39 32 -16 61 -34 64 -39 4
-5 31 -21 61 -35 29 -14 57 -31 60 -36 4 -6 33 -24 65 -40 32 -16 61 -34 65
-39 3 -6 27 -20 53 -31 26 -12 56 -29 67 -39 11 -11 49 -33 85 -51 36 -18 72
-38 80 -45 8 -7 39 -25 68 -40 29 -15 55 -31 58 -36 3 -5 31 -23 62 -40 111
-60 170 -94 188 -110 11 -9 42 -27 69 -39 28 -12 73 -37 100 -55 28 -18 72
-45 99 -61 26 -16 56 -33 65 -39 9 -5 50 -30 91 -54 41 -24 93 -56 115 -70 22
-15 69 -42 105 -60 36 -19 72 -39 80 -46 8 -7 38 -24 67 -39 28 -14 54 -30 58
-36 4 -6 32 -24 63 -41 106 -57 170 -94 188 -109 11 -9 39 -26 64 -39 25 -13
52 -30 60 -36 8 -7 47 -29 87 -49 39 -19 75 -40 78 -46 4 -6 31 -22 60 -36 30
-13 57 -29 60 -34 4 -6 33 -24 65 -40 32 -16 62 -34 65 -40 7 -11 20 -18 110
-51 67 -26 262 -27 338 -2 60 19 85 36 174 118 69 64 116 140 135 223 16 71
21 193 9 205 -6 6 -11 25 -11 43 0 42 -61 158 -108 207 -41 43 -131 106 -203
143 -26 13 -50 28 -54 34 -4 6 -32 24 -63 41 -111 60 -170 94 -188 110 -11 9
-50 33 -89 54 -116 61 -182 99 -202 117 -10 10 -40 27 -65 38 -26 11 -50 25
-53 31 -4 5 -33 23 -65 39 -32 16 -62 34 -65 40 -4 6 -34 24 -67 40 -33 16
-81 42 -107 58 -25 16 -80 48 -121 72 -78 45 -158 94 -238 145 -26 17 -77 46
-115 64 -37 19 -70 38 -73 42 -3 5 -32 23 -64 39 -32 16 -61 34 -65 40 -3 5
-23 17 -43 27 -20 9 -55 29 -77 43 -58 39 -127 80 -206 121 -38 19 -76 42 -86
51 -10 9 -41 27 -70 42 -28 14 -54 30 -58 36 -3 5 -27 19 -53 30 -25 11 -55
28 -65 38 -20 18 -86 56 -202 117 -38 21 -78 44 -87 53 -17 14 -18 133 -18
2222 0 2004 -1 2213 -16 2261 -49 163 -137 268 -284 338 -84 41 -86 41 -200
41 -114 -1 -116 -1 -200 -41z"/>
</g>
</svg>
